<mxfile host="app.diagrams.net" agent="Mozilla/5.0 (Windows NT 10.0; Win64; x64) AppleWebKit/537.36 (KHTML, like Gecko) Chrome/126.0.0.0 Safari/537.36 OPR/112.0.0.0" version="24.7.16">
  <diagram id="GOcFvl7QiYu4JGKxA7sM" name="Diagrama de actividad">
    <mxGraphModel grid="1" page="1" gridSize="10" guides="1" tooltips="1" connect="1" arrows="1" fold="1" pageScale="1" pageWidth="827" pageHeight="1169" math="0" shadow="0">
      <root>
        <mxCell id="0" />
        <mxCell id="1" parent="0" />
        <mxCell id="1ND5I2fzqLQ5LZ6JgbBR-4" value="Cliente" style="swimlane;whiteSpace=wrap;html=1;" vertex="1" parent="1">
          <mxGeometry width="440" height="2600" as="geometry">
            <mxRectangle width="80" height="30" as="alternateBounds" />
          </mxGeometry>
        </mxCell>
        <mxCell id="1ND5I2fzqLQ5LZ6JgbBR-2" value="" style="edgeStyle=orthogonalEdgeStyle;html=1;verticalAlign=bottom;endArrow=open;endSize=8;strokeColor=#ff0000;rounded=0;entryX=0.5;entryY=0;entryDx=0;entryDy=0;" edge="1" parent="1ND5I2fzqLQ5LZ6JgbBR-4" target="1ND5I2fzqLQ5LZ6JgbBR-7">
          <mxGeometry relative="1" as="geometry">
            <mxPoint x="179.75" y="176" as="targetPoint" />
            <mxPoint x="179.75" y="86" as="sourcePoint" />
          </mxGeometry>
        </mxCell>
        <mxCell id="1ND5I2fzqLQ5LZ6JgbBR-7" value="Entrar al blog" style="rounded=1;whiteSpace=wrap;html=1;arcSize=40;fontColor=#000000;fillColor=#ffffc0;strokeColor=#ff0000;" vertex="1" parent="1ND5I2fzqLQ5LZ6JgbBR-4">
          <mxGeometry x="120" y="160" width="120" height="40" as="geometry" />
        </mxCell>
        <mxCell id="1ND5I2fzqLQ5LZ6JgbBR-14" value="" style="edgeStyle=orthogonalEdgeStyle;rounded=0;orthogonalLoop=1;jettySize=auto;html=1;" edge="1" parent="1ND5I2fzqLQ5LZ6JgbBR-4" source="1ND5I2fzqLQ5LZ6JgbBR-11" target="1ND5I2fzqLQ5LZ6JgbBR-13">
          <mxGeometry relative="1" as="geometry" />
        </mxCell>
        <mxCell id="1ND5I2fzqLQ5LZ6JgbBR-11" value="Iniciar sesión como cliente" style="whiteSpace=wrap;html=1;fillColor=#ffffc0;strokeColor=#ff0000;fontColor=#000000;rounded=1;arcSize=40;" vertex="1" parent="1ND5I2fzqLQ5LZ6JgbBR-4">
          <mxGeometry x="121" y="240" width="120" height="40" as="geometry" />
        </mxCell>
        <mxCell id="1ND5I2fzqLQ5LZ6JgbBR-16" value="" style="edgeStyle=orthogonalEdgeStyle;rounded=0;orthogonalLoop=1;jettySize=auto;html=1;entryX=0;entryY=0.5;entryDx=0;entryDy=0;" edge="1" parent="1ND5I2fzqLQ5LZ6JgbBR-4" source="1ND5I2fzqLQ5LZ6JgbBR-13" target="1ND5I2fzqLQ5LZ6JgbBR-15">
          <mxGeometry relative="1" as="geometry">
            <mxPoint x="270" y="390.0000000000001" as="targetPoint" />
          </mxGeometry>
        </mxCell>
        <mxCell id="i-x4lbsmzgOjpVQ5UTCv-13" value="No" style="edgeLabel;html=1;align=center;verticalAlign=middle;resizable=0;points=[];" connectable="0" vertex="1" parent="1ND5I2fzqLQ5LZ6JgbBR-16">
          <mxGeometry x="-0.24" y="1" relative="1" as="geometry">
            <mxPoint as="offset" />
          </mxGeometry>
        </mxCell>
        <mxCell id="1ND5I2fzqLQ5LZ6JgbBR-22" value="" style="edgeStyle=orthogonalEdgeStyle;rounded=0;orthogonalLoop=1;jettySize=auto;html=1;" edge="1" parent="1ND5I2fzqLQ5LZ6JgbBR-4" source="1ND5I2fzqLQ5LZ6JgbBR-13" target="1ND5I2fzqLQ5LZ6JgbBR-21">
          <mxGeometry relative="1" as="geometry" />
        </mxCell>
        <mxCell id="i-x4lbsmzgOjpVQ5UTCv-14" value="Si" style="edgeLabel;html=1;align=center;verticalAlign=middle;resizable=0;points=[];" connectable="0" vertex="1" parent="1ND5I2fzqLQ5LZ6JgbBR-22">
          <mxGeometry x="-0.1889" relative="1" as="geometry">
            <mxPoint as="offset" />
          </mxGeometry>
        </mxCell>
        <mxCell id="1ND5I2fzqLQ5LZ6JgbBR-13" value="¿Posee&lt;div&gt;Cuenta?&lt;/div&gt;" style="rhombus;whiteSpace=wrap;html=1;fillColor=#ffffc0;strokeColor=#ff0000;fontColor=#000000;rounded=1;arcSize=40;" vertex="1" parent="1ND5I2fzqLQ5LZ6JgbBR-4">
          <mxGeometry x="141" y="350" width="80" height="80" as="geometry" />
        </mxCell>
        <mxCell id="1ND5I2fzqLQ5LZ6JgbBR-15" value="Registrarse" style="whiteSpace=wrap;html=1;fillColor=#ffffc0;strokeColor=#ff0000;fontColor=#000000;rounded=1;arcSize=40;" vertex="1" parent="1ND5I2fzqLQ5LZ6JgbBR-4">
          <mxGeometry x="270" y="370" width="120" height="40" as="geometry" />
        </mxCell>
        <mxCell id="1ND5I2fzqLQ5LZ6JgbBR-21" value="iniciar sesión" style="whiteSpace=wrap;html=1;fillColor=#ffffc0;strokeColor=#ff0000;fontColor=#000000;rounded=1;arcSize=40;" vertex="1" parent="1ND5I2fzqLQ5LZ6JgbBR-4">
          <mxGeometry x="120" y="480" width="120" height="40" as="geometry" />
        </mxCell>
        <mxCell id="1ND5I2fzqLQ5LZ6JgbBR-1" value="" style="ellipse;html=1;shape=startState;fillColor=#000000;strokeColor=#ff0000;" vertex="1" parent="1ND5I2fzqLQ5LZ6JgbBR-4">
          <mxGeometry x="160" y="40" width="40" height="40" as="geometry" />
        </mxCell>
        <mxCell id="1ND5I2fzqLQ5LZ6JgbBR-46" value="" style="edgeStyle=orthogonalEdgeStyle;rounded=0;orthogonalLoop=1;jettySize=auto;html=1;" edge="1" parent="1ND5I2fzqLQ5LZ6JgbBR-4" source="1ND5I2fzqLQ5LZ6JgbBR-43" target="1ND5I2fzqLQ5LZ6JgbBR-45">
          <mxGeometry relative="1" as="geometry" />
        </mxCell>
        <mxCell id="1ND5I2fzqLQ5LZ6JgbBR-43" value="Seleccionar Barberia Gotti" style="whiteSpace=wrap;html=1;fillColor=#ffffc0;strokeColor=#ff0000;fontColor=#000000;rounded=1;arcSize=40;" vertex="1" parent="1ND5I2fzqLQ5LZ6JgbBR-4">
          <mxGeometry x="120" y="610" width="120" height="40" as="geometry" />
        </mxCell>
        <mxCell id="1ND5I2fzqLQ5LZ6JgbBR-49" value="" style="edgeStyle=orthogonalEdgeStyle;rounded=0;orthogonalLoop=1;jettySize=auto;html=1;" edge="1" parent="1ND5I2fzqLQ5LZ6JgbBR-4" source="1ND5I2fzqLQ5LZ6JgbBR-45" target="1ND5I2fzqLQ5LZ6JgbBR-48">
          <mxGeometry relative="1" as="geometry" />
        </mxCell>
        <mxCell id="i-x4lbsmzgOjpVQ5UTCv-44" value="Si" style="edgeLabel;html=1;align=center;verticalAlign=middle;resizable=0;points=[];" connectable="0" vertex="1" parent="1ND5I2fzqLQ5LZ6JgbBR-49">
          <mxGeometry x="-0.5684" y="-4" relative="1" as="geometry">
            <mxPoint as="offset" />
          </mxGeometry>
        </mxCell>
        <mxCell id="i-x4lbsmzgOjpVQ5UTCv-7" value="" style="edgeStyle=orthogonalEdgeStyle;rounded=0;orthogonalLoop=1;jettySize=auto;html=1;entryX=1;entryY=0.5;entryDx=0;entryDy=0;" edge="1" parent="1ND5I2fzqLQ5LZ6JgbBR-4" source="1ND5I2fzqLQ5LZ6JgbBR-45" target="i-x4lbsmzgOjpVQ5UTCv-17">
          <mxGeometry relative="1" as="geometry">
            <mxPoint x="240" y="1289.9999999999998" as="targetPoint" />
            <Array as="points">
              <mxPoint x="270" y="750" />
              <mxPoint x="270" y="1250" />
            </Array>
          </mxGeometry>
        </mxCell>
        <mxCell id="i-x4lbsmzgOjpVQ5UTCv-45" value="No" style="edgeLabel;html=1;align=center;verticalAlign=middle;resizable=0;points=[];" connectable="0" vertex="1" parent="i-x4lbsmzgOjpVQ5UTCv-7">
          <mxGeometry x="-0.9413" y="4" relative="1" as="geometry">
            <mxPoint as="offset" />
          </mxGeometry>
        </mxCell>
        <mxCell id="1ND5I2fzqLQ5LZ6JgbBR-45" value="¿Agendar&amp;nbsp;&lt;div&gt;Hora?&lt;/div&gt;" style="rhombus;whiteSpace=wrap;html=1;fillColor=#ffffc0;strokeColor=#ff0000;fontColor=#000000;rounded=1;arcSize=40;" vertex="1" parent="1ND5I2fzqLQ5LZ6JgbBR-4">
          <mxGeometry x="140" y="710" width="80" height="80" as="geometry" />
        </mxCell>
        <mxCell id="1ND5I2fzqLQ5LZ6JgbBR-51" value="" style="edgeStyle=orthogonalEdgeStyle;rounded=0;orthogonalLoop=1;jettySize=auto;html=1;" edge="1" parent="1ND5I2fzqLQ5LZ6JgbBR-4" source="1ND5I2fzqLQ5LZ6JgbBR-48" target="1ND5I2fzqLQ5LZ6JgbBR-50">
          <mxGeometry relative="1" as="geometry" />
        </mxCell>
        <mxCell id="1ND5I2fzqLQ5LZ6JgbBR-48" value="Seleccionar tipo de servicio" style="whiteSpace=wrap;html=1;fillColor=#ffffc0;strokeColor=#ff0000;fontColor=#000000;rounded=1;arcSize=40;" vertex="1" parent="1ND5I2fzqLQ5LZ6JgbBR-4">
          <mxGeometry x="120" y="840" width="120" height="40" as="geometry" />
        </mxCell>
        <mxCell id="1ND5I2fzqLQ5LZ6JgbBR-53" value="" style="edgeStyle=orthogonalEdgeStyle;rounded=0;orthogonalLoop=1;jettySize=auto;html=1;" edge="1" parent="1ND5I2fzqLQ5LZ6JgbBR-4" source="1ND5I2fzqLQ5LZ6JgbBR-50" target="1ND5I2fzqLQ5LZ6JgbBR-52">
          <mxGeometry relative="1" as="geometry" />
        </mxCell>
        <mxCell id="1ND5I2fzqLQ5LZ6JgbBR-50" value="Seleccionar tipo de servicio" style="whiteSpace=wrap;html=1;fillColor=#ffffc0;strokeColor=#ff0000;fontColor=#000000;rounded=1;arcSize=40;" vertex="1" parent="1ND5I2fzqLQ5LZ6JgbBR-4">
          <mxGeometry x="120" y="960" width="120" height="40" as="geometry" />
        </mxCell>
        <mxCell id="i-x4lbsmzgOjpVQ5UTCv-11" value="" style="edgeStyle=orthogonalEdgeStyle;rounded=0;orthogonalLoop=1;jettySize=auto;html=1;" edge="1" parent="1ND5I2fzqLQ5LZ6JgbBR-4" source="1ND5I2fzqLQ5LZ6JgbBR-52" target="i-x4lbsmzgOjpVQ5UTCv-10">
          <mxGeometry relative="1" as="geometry" />
        </mxCell>
        <mxCell id="1ND5I2fzqLQ5LZ6JgbBR-52" value="Reservar hora" style="whiteSpace=wrap;html=1;fillColor=#ffffc0;strokeColor=#ff0000;fontColor=#000000;rounded=1;arcSize=40;" vertex="1" parent="1ND5I2fzqLQ5LZ6JgbBR-4">
          <mxGeometry x="120" y="1050" width="120" height="40" as="geometry" />
        </mxCell>
        <mxCell id="i-x4lbsmzgOjpVQ5UTCv-10" value="" style="shape=sumEllipse;perimeter=ellipsePerimeter;html=1;backgroundOutline=1;" vertex="1" parent="1ND5I2fzqLQ5LZ6JgbBR-4">
          <mxGeometry x="165" y="1139" width="30" height="30" as="geometry" />
        </mxCell>
        <mxCell id="i-x4lbsmzgOjpVQ5UTCv-19" value="" style="edgeStyle=orthogonalEdgeStyle;rounded=0;orthogonalLoop=1;jettySize=auto;html=1;" edge="1" parent="1ND5I2fzqLQ5LZ6JgbBR-4" source="i-x4lbsmzgOjpVQ5UTCv-17" target="i-x4lbsmzgOjpVQ5UTCv-18">
          <mxGeometry relative="1" as="geometry" />
        </mxCell>
        <mxCell id="i-x4lbsmzgOjpVQ5UTCv-46" value="Si" style="edgeLabel;html=1;align=center;verticalAlign=middle;resizable=0;points=[];" connectable="0" vertex="1" parent="i-x4lbsmzgOjpVQ5UTCv-19">
          <mxGeometry x="-0.0658" y="-3" relative="1" as="geometry">
            <mxPoint as="offset" />
          </mxGeometry>
        </mxCell>
        <mxCell id="i-x4lbsmzgOjpVQ5UTCv-48" value="" style="edgeStyle=orthogonalEdgeStyle;rounded=0;orthogonalLoop=1;jettySize=auto;html=1;" edge="1" parent="1ND5I2fzqLQ5LZ6JgbBR-4" source="i-x4lbsmzgOjpVQ5UTCv-17" target="i-x4lbsmzgOjpVQ5UTCv-47">
          <mxGeometry relative="1" as="geometry" />
        </mxCell>
        <mxCell id="i-x4lbsmzgOjpVQ5UTCv-17" value="¿Comprar productos?" style="rhombus;whiteSpace=wrap;html=1;fillColor=#ffffc0;strokeColor=#ff0000;fontColor=#000000;rounded=1;arcSize=40;" vertex="1" parent="1ND5I2fzqLQ5LZ6JgbBR-4">
          <mxGeometry x="140" y="1210" width="80" height="80" as="geometry" />
        </mxCell>
        <mxCell id="i-x4lbsmzgOjpVQ5UTCv-21" value="" style="edgeStyle=orthogonalEdgeStyle;rounded=0;orthogonalLoop=1;jettySize=auto;html=1;" edge="1" parent="1ND5I2fzqLQ5LZ6JgbBR-4" source="i-x4lbsmzgOjpVQ5UTCv-18" target="i-x4lbsmzgOjpVQ5UTCv-20">
          <mxGeometry relative="1" as="geometry" />
        </mxCell>
        <mxCell id="i-x4lbsmzgOjpVQ5UTCv-18" value="Agregar producto a la canasta" style="whiteSpace=wrap;html=1;fillColor=#ffffc0;strokeColor=#ff0000;fontColor=#000000;rounded=1;arcSize=40;" vertex="1" parent="1ND5I2fzqLQ5LZ6JgbBR-4">
          <mxGeometry x="120" y="1360" width="120" height="40" as="geometry" />
        </mxCell>
        <mxCell id="i-x4lbsmzgOjpVQ5UTCv-22" style="edgeStyle=orthogonalEdgeStyle;rounded=0;orthogonalLoop=1;jettySize=auto;html=1;exitX=0;exitY=0.5;exitDx=0;exitDy=0;entryX=0;entryY=0.5;entryDx=0;entryDy=0;" edge="1" parent="1ND5I2fzqLQ5LZ6JgbBR-4" source="i-x4lbsmzgOjpVQ5UTCv-20" target="i-x4lbsmzgOjpVQ5UTCv-18">
          <mxGeometry relative="1" as="geometry">
            <Array as="points">
              <mxPoint x="80" y="1500" />
              <mxPoint x="80" y="1380" />
            </Array>
          </mxGeometry>
        </mxCell>
        <mxCell id="i-x4lbsmzgOjpVQ5UTCv-24" value="" style="edgeStyle=orthogonalEdgeStyle;rounded=0;orthogonalLoop=1;jettySize=auto;html=1;" edge="1" parent="1ND5I2fzqLQ5LZ6JgbBR-4" source="i-x4lbsmzgOjpVQ5UTCv-20" target="i-x4lbsmzgOjpVQ5UTCv-23">
          <mxGeometry relative="1" as="geometry" />
        </mxCell>
        <mxCell id="i-x4lbsmzgOjpVQ5UTCv-20" value="¿Seguir comprando?" style="rhombus;whiteSpace=wrap;html=1;fillColor=#ffffc0;strokeColor=#ff0000;fontColor=#000000;rounded=1;arcSize=40;" vertex="1" parent="1ND5I2fzqLQ5LZ6JgbBR-4">
          <mxGeometry x="140" y="1460" width="80" height="80" as="geometry" />
        </mxCell>
        <mxCell id="i-x4lbsmzgOjpVQ5UTCv-26" value="" style="edgeStyle=orthogonalEdgeStyle;rounded=0;orthogonalLoop=1;jettySize=auto;html=1;" edge="1" parent="1ND5I2fzqLQ5LZ6JgbBR-4" source="i-x4lbsmzgOjpVQ5UTCv-23" target="i-x4lbsmzgOjpVQ5UTCv-25">
          <mxGeometry relative="1" as="geometry" />
        </mxCell>
        <mxCell id="i-x4lbsmzgOjpVQ5UTCv-23" value="Seleccionar medio de pago" style="whiteSpace=wrap;html=1;fillColor=#ffffc0;strokeColor=#ff0000;fontColor=#000000;rounded=1;arcSize=40;" vertex="1" parent="1ND5I2fzqLQ5LZ6JgbBR-4">
          <mxGeometry x="120" y="1600" width="120" height="40" as="geometry" />
        </mxCell>
        <mxCell id="i-x4lbsmzgOjpVQ5UTCv-42" value="" style="edgeStyle=orthogonalEdgeStyle;rounded=0;orthogonalLoop=1;jettySize=auto;html=1;" edge="1" parent="1ND5I2fzqLQ5LZ6JgbBR-4" source="i-x4lbsmzgOjpVQ5UTCv-25" target="i-x4lbsmzgOjpVQ5UTCv-41">
          <mxGeometry relative="1" as="geometry" />
        </mxCell>
        <mxCell id="i-x4lbsmzgOjpVQ5UTCv-25" value="Debito&lt;div&gt;/Crédito&lt;/div&gt;" style="rhombus;whiteSpace=wrap;html=1;fillColor=#ffffc0;strokeColor=#ff0000;fontColor=#000000;rounded=1;arcSize=40;" vertex="1" parent="1ND5I2fzqLQ5LZ6JgbBR-4">
          <mxGeometry x="140" y="1700" width="80" height="80" as="geometry" />
        </mxCell>
        <mxCell id="i-x4lbsmzgOjpVQ5UTCv-38" value="" style="edgeStyle=orthogonalEdgeStyle;rounded=0;orthogonalLoop=1;jettySize=auto;html=1;" edge="1" parent="1ND5I2fzqLQ5LZ6JgbBR-4" source="i-x4lbsmzgOjpVQ5UTCv-35" target="i-x4lbsmzgOjpVQ5UTCv-37">
          <mxGeometry relative="1" as="geometry" />
        </mxCell>
        <mxCell id="i-x4lbsmzgOjpVQ5UTCv-35" value="Recibir boleta" style="whiteSpace=wrap;html=1;fillColor=#ffffc0;strokeColor=#ff0000;fontColor=#000000;rounded=1;arcSize=40;" vertex="1" parent="1ND5I2fzqLQ5LZ6JgbBR-4">
          <mxGeometry x="120" y="2010" width="120" height="40" as="geometry" />
        </mxCell>
        <mxCell id="i-x4lbsmzgOjpVQ5UTCv-52" value="" style="edgeStyle=orthogonalEdgeStyle;rounded=0;orthogonalLoop=1;jettySize=auto;html=1;" edge="1" parent="1ND5I2fzqLQ5LZ6JgbBR-4" source="i-x4lbsmzgOjpVQ5UTCv-37">
          <mxGeometry relative="1" as="geometry">
            <mxPoint x="179.99999999999977" y="2190" as="targetPoint" />
          </mxGeometry>
        </mxCell>
        <mxCell id="i-x4lbsmzgOjpVQ5UTCv-37" value="Cerrar pagina" style="whiteSpace=wrap;html=1;fillColor=#ffffc0;strokeColor=#ff0000;fontColor=#000000;rounded=1;arcSize=40;" vertex="1" parent="1ND5I2fzqLQ5LZ6JgbBR-4">
          <mxGeometry x="120" y="2110" width="120" height="40" as="geometry" />
        </mxCell>
        <mxCell id="i-x4lbsmzgOjpVQ5UTCv-41" value="Seleccionar numero de cuotas" style="whiteSpace=wrap;html=1;fillColor=#ffffc0;strokeColor=#ff0000;fontColor=#000000;rounded=1;arcSize=40;" vertex="1" parent="1ND5I2fzqLQ5LZ6JgbBR-4">
          <mxGeometry x="120" y="1840" width="120" height="40" as="geometry" />
        </mxCell>
        <mxCell id="i-x4lbsmzgOjpVQ5UTCv-50" value="" style="edgeStyle=orthogonalEdgeStyle;rounded=0;orthogonalLoop=1;jettySize=auto;html=1;" edge="1" parent="1ND5I2fzqLQ5LZ6JgbBR-4" source="i-x4lbsmzgOjpVQ5UTCv-47" target="i-x4lbsmzgOjpVQ5UTCv-49">
          <mxGeometry relative="1" as="geometry" />
        </mxCell>
        <mxCell id="i-x4lbsmzgOjpVQ5UTCv-47" value="Cerrar pagina" style="whiteSpace=wrap;html=1;fillColor=#ffffc0;strokeColor=#ff0000;fontColor=#000000;rounded=1;arcSize=40;" vertex="1" parent="1ND5I2fzqLQ5LZ6JgbBR-4">
          <mxGeometry x="10" y="1230" width="90" height="40" as="geometry" />
        </mxCell>
        <mxCell id="i-x4lbsmzgOjpVQ5UTCv-49" value="" style="shape=sumEllipse;perimeter=ellipsePerimeter;html=1;backgroundOutline=1;" vertex="1" parent="1ND5I2fzqLQ5LZ6JgbBR-4">
          <mxGeometry x="40" y="1310" width="30" height="30" as="geometry" />
        </mxCell>
        <mxCell id="i-x4lbsmzgOjpVQ5UTCv-53" value="" style="ellipse;html=1;shape=endState;fillColor=#000000;strokeColor=#ff0000;" vertex="1" parent="1ND5I2fzqLQ5LZ6JgbBR-4">
          <mxGeometry x="160" y="2190" width="40" height="40" as="geometry" />
        </mxCell>
        <mxCell id="1ND5I2fzqLQ5LZ6JgbBR-18" value="" style="edgeStyle=orthogonalEdgeStyle;rounded=0;orthogonalLoop=1;jettySize=auto;html=1;" edge="1" parent="1" source="1ND5I2fzqLQ5LZ6JgbBR-15" target="1ND5I2fzqLQ5LZ6JgbBR-17">
          <mxGeometry relative="1" as="geometry" />
        </mxCell>
        <mxCell id="1ND5I2fzqLQ5LZ6JgbBR-23" value="" style="edgeStyle=orthogonalEdgeStyle;rounded=0;orthogonalLoop=1;jettySize=auto;html=1;exitX=1;exitY=0.5;exitDx=0;exitDy=0;entryX=0.5;entryY=1;entryDx=0;entryDy=0;" edge="1" parent="1" source="1ND5I2fzqLQ5LZ6JgbBR-21" target="1ND5I2fzqLQ5LZ6JgbBR-17">
          <mxGeometry relative="1" as="geometry">
            <mxPoint x="150" y="430" as="sourcePoint" />
            <mxPoint x="150" y="520" as="targetPoint" />
          </mxGeometry>
        </mxCell>
        <mxCell id="1ND5I2fzqLQ5LZ6JgbBR-28" value="Sistema" style="swimlane;whiteSpace=wrap;html=1;" vertex="1" parent="1">
          <mxGeometry x="440" width="440" height="2600" as="geometry" />
        </mxCell>
        <mxCell id="1ND5I2fzqLQ5LZ6JgbBR-17" value="Validar datos&lt;div&gt;de cliente&lt;/div&gt;" style="whiteSpace=wrap;html=1;fillColor=#ffffc0;strokeColor=#ff0000;fontColor=#000000;rounded=1;arcSize=40;" vertex="1" parent="1ND5I2fzqLQ5LZ6JgbBR-28">
          <mxGeometry x="140" y="370" width="120" height="40" as="geometry" />
        </mxCell>
        <mxCell id="i-x4lbsmzgOjpVQ5UTCv-4" value="Mostrar Home de la pagina" style="rounded=1;whiteSpace=wrap;html=1;arcSize=40;fontColor=#000000;fillColor=#ffffc0;strokeColor=#ff0000;" vertex="1" parent="1ND5I2fzqLQ5LZ6JgbBR-28">
          <mxGeometry x="140" y="160" width="120" height="40" as="geometry" />
        </mxCell>
        <mxCell id="i-x4lbsmzgOjpVQ5UTCv-27" value="Validar pago" style="whiteSpace=wrap;html=1;fillColor=#ffffc0;strokeColor=#ff0000;fontColor=#000000;rounded=1;arcSize=40;" vertex="1" parent="1ND5I2fzqLQ5LZ6JgbBR-28">
          <mxGeometry x="140" y="1720" width="120" height="40" as="geometry" />
        </mxCell>
        <mxCell id="i-x4lbsmzgOjpVQ5UTCv-30" value="Generar boleta" style="whiteSpace=wrap;html=1;fillColor=#ffffc0;strokeColor=#ff0000;fontColor=#000000;rounded=1;arcSize=40;" vertex="1" parent="1ND5I2fzqLQ5LZ6JgbBR-28">
          <mxGeometry x="140" y="1910" width="120" height="40" as="geometry" />
        </mxCell>
        <mxCell id="i-x4lbsmzgOjpVQ5UTCv-31" value="" style="edgeStyle=orthogonalEdgeStyle;rounded=0;orthogonalLoop=1;jettySize=auto;html=1;exitX=1;exitY=0.5;exitDx=0;exitDy=0;entryX=1;entryY=0.5;entryDx=0;entryDy=0;" edge="1" parent="1ND5I2fzqLQ5LZ6JgbBR-28" source="i-x4lbsmzgOjpVQ5UTCv-27" target="i-x4lbsmzgOjpVQ5UTCv-30">
          <mxGeometry relative="1" as="geometry" />
        </mxCell>
        <mxCell id="i-x4lbsmzgOjpVQ5UTCv-32" value="Enviar boleta" style="whiteSpace=wrap;html=1;fillColor=#ffffc0;strokeColor=#ff0000;fontColor=#000000;rounded=1;arcSize=40;" vertex="1" parent="1ND5I2fzqLQ5LZ6JgbBR-28">
          <mxGeometry x="140" y="2010" width="120" height="40" as="geometry" />
        </mxCell>
        <mxCell id="i-x4lbsmzgOjpVQ5UTCv-33" value="" style="edgeStyle=orthogonalEdgeStyle;rounded=0;orthogonalLoop=1;jettySize=auto;html=1;" edge="1" parent="1ND5I2fzqLQ5LZ6JgbBR-28" source="i-x4lbsmzgOjpVQ5UTCv-30" target="i-x4lbsmzgOjpVQ5UTCv-32">
          <mxGeometry relative="1" as="geometry" />
        </mxCell>
        <mxCell id="i-x4lbsmzgOjpVQ5UTCv-71" value="Validar datos&lt;div&gt;de Barbero&lt;/div&gt;" style="whiteSpace=wrap;html=1;fillColor=#ffffc0;strokeColor=#ff0000;fontColor=#000000;rounded=1;arcSize=40;" vertex="1" parent="1ND5I2fzqLQ5LZ6JgbBR-28">
          <mxGeometry x="140" y="720" width="120" height="40" as="geometry" />
        </mxCell>
        <mxCell id="i-x4lbsmzgOjpVQ5UTCv-94" value="" style="edgeStyle=orthogonalEdgeStyle;rounded=0;orthogonalLoop=1;jettySize=auto;html=1;" edge="1" parent="1ND5I2fzqLQ5LZ6JgbBR-28" source="i-x4lbsmzgOjpVQ5UTCv-91" target="i-x4lbsmzgOjpVQ5UTCv-93">
          <mxGeometry relative="1" as="geometry" />
        </mxCell>
        <mxCell id="i-x4lbsmzgOjpVQ5UTCv-91" value="Generar modificación guardada" style="whiteSpace=wrap;html=1;fillColor=#ffffc0;strokeColor=#ff0000;fontColor=#000000;rounded=1;arcSize=40;" vertex="1" parent="1ND5I2fzqLQ5LZ6JgbBR-28">
          <mxGeometry x="160" y="1200" width="120" height="40" as="geometry" />
        </mxCell>
        <mxCell id="i-x4lbsmzgOjpVQ5UTCv-93" value="Mostrar Modificaciones" style="whiteSpace=wrap;html=1;fillColor=#ffffc0;strokeColor=#ff0000;fontColor=#000000;rounded=1;arcSize=40;" vertex="1" parent="1ND5I2fzqLQ5LZ6JgbBR-28">
          <mxGeometry x="160" y="1320" width="120" height="40" as="geometry" />
        </mxCell>
        <mxCell id="i-x4lbsmzgOjpVQ5UTCv-117" value="" style="edgeStyle=orthogonalEdgeStyle;rounded=0;orthogonalLoop=1;jettySize=auto;html=1;" edge="1" parent="1ND5I2fzqLQ5LZ6JgbBR-28" source="i-x4lbsmzgOjpVQ5UTCv-114" target="i-x4lbsmzgOjpVQ5UTCv-116">
          <mxGeometry relative="1" as="geometry" />
        </mxCell>
        <mxCell id="i-x4lbsmzgOjpVQ5UTCv-114" value="Generar lo guardado" style="whiteSpace=wrap;html=1;fillColor=#ffffc0;strokeColor=#ff0000;fontColor=#000000;rounded=1;arcSize=40;" vertex="1" parent="1ND5I2fzqLQ5LZ6JgbBR-28">
          <mxGeometry x="150" y="2120" width="120" height="40" as="geometry" />
        </mxCell>
        <mxCell id="i-x4lbsmzgOjpVQ5UTCv-116" value="Mostrar Modificaciones" style="whiteSpace=wrap;html=1;fillColor=#ffffc0;strokeColor=#ff0000;fontColor=#000000;rounded=1;arcSize=40;" vertex="1" parent="1ND5I2fzqLQ5LZ6JgbBR-28">
          <mxGeometry x="150" y="2240" width="120" height="40" as="geometry" />
        </mxCell>
        <mxCell id="1ND5I2fzqLQ5LZ6JgbBR-42" value="Barbero" style="swimlane;whiteSpace=wrap;html=1;" vertex="1" parent="1">
          <mxGeometry x="880" width="520" height="2600" as="geometry" />
        </mxCell>
        <mxCell id="i-x4lbsmzgOjpVQ5UTCv-57" value="" style="edgeStyle=orthogonalEdgeStyle;rounded=0;orthogonalLoop=1;jettySize=auto;html=1;" edge="1" parent="1ND5I2fzqLQ5LZ6JgbBR-42" source="i-x4lbsmzgOjpVQ5UTCv-54">
          <mxGeometry relative="1" as="geometry">
            <mxPoint x="260" y="150" as="targetPoint" />
          </mxGeometry>
        </mxCell>
        <mxCell id="i-x4lbsmzgOjpVQ5UTCv-54" value="" style="ellipse;html=1;shape=startState;fillColor=#000000;strokeColor=#ff0000;" vertex="1" parent="1ND5I2fzqLQ5LZ6JgbBR-42">
          <mxGeometry x="240" y="40" width="40" height="40" as="geometry" />
        </mxCell>
        <mxCell id="i-x4lbsmzgOjpVQ5UTCv-55" value="" style="edgeStyle=orthogonalEdgeStyle;html=1;verticalAlign=bottom;endArrow=open;endSize=8;strokeColor=#ff0000;rounded=0;entryX=0.5;entryY=0;entryDx=0;entryDy=0;" edge="1" parent="1ND5I2fzqLQ5LZ6JgbBR-42" source="i-x4lbsmzgOjpVQ5UTCv-54" target="i-x4lbsmzgOjpVQ5UTCv-58">
          <mxGeometry relative="1" as="geometry">
            <mxPoint x="260" y="150" as="targetPoint" />
          </mxGeometry>
        </mxCell>
        <mxCell id="i-x4lbsmzgOjpVQ5UTCv-58" value="Entrar al blog" style="rounded=1;whiteSpace=wrap;html=1;arcSize=40;fontColor=#000000;fillColor=#ffffc0;strokeColor=#ff0000;" vertex="1" parent="1ND5I2fzqLQ5LZ6JgbBR-42">
          <mxGeometry x="200" y="160" width="120" height="40" as="geometry" />
        </mxCell>
        <mxCell id="i-x4lbsmzgOjpVQ5UTCv-70" value="" style="edgeStyle=orthogonalEdgeStyle;rounded=0;orthogonalLoop=1;jettySize=auto;html=1;" edge="1" parent="1ND5I2fzqLQ5LZ6JgbBR-42" source="i-x4lbsmzgOjpVQ5UTCv-62" target="i-x4lbsmzgOjpVQ5UTCv-68">
          <mxGeometry relative="1" as="geometry" />
        </mxCell>
        <mxCell id="i-x4lbsmzgOjpVQ5UTCv-62" value="Iniciar sesión como barbero" style="rounded=1;whiteSpace=wrap;html=1;arcSize=40;fontColor=#000000;fillColor=#ffffc0;strokeColor=#ff0000;" vertex="1" parent="1ND5I2fzqLQ5LZ6JgbBR-42">
          <mxGeometry x="200" y="240" width="120" height="40" as="geometry" />
        </mxCell>
        <mxCell id="i-x4lbsmzgOjpVQ5UTCv-66" value="" style="edgeStyle=orthogonalEdgeStyle;rounded=0;orthogonalLoop=1;jettySize=auto;html=1;entryX=0.5;entryY=0;entryDx=0;entryDy=0;" edge="1" parent="1ND5I2fzqLQ5LZ6JgbBR-42" source="i-x4lbsmzgOjpVQ5UTCv-68" target="i-x4lbsmzgOjpVQ5UTCv-74">
          <mxGeometry relative="1" as="geometry">
            <mxPoint x="260" y="480" as="targetPoint" />
          </mxGeometry>
        </mxCell>
        <mxCell id="i-x4lbsmzgOjpVQ5UTCv-67" value="Si" style="edgeLabel;html=1;align=center;verticalAlign=middle;resizable=0;points=[];" connectable="0" vertex="1" parent="i-x4lbsmzgOjpVQ5UTCv-66">
          <mxGeometry x="-0.1889" relative="1" as="geometry">
            <mxPoint as="offset" />
          </mxGeometry>
        </mxCell>
        <mxCell id="i-x4lbsmzgOjpVQ5UTCv-141" style="edgeStyle=orthogonalEdgeStyle;rounded=0;orthogonalLoop=1;jettySize=auto;html=1;exitX=0;exitY=0.5;exitDx=0;exitDy=0;" edge="1" parent="1ND5I2fzqLQ5LZ6JgbBR-42" source="i-x4lbsmzgOjpVQ5UTCv-68" target="i-x4lbsmzgOjpVQ5UTCv-76">
          <mxGeometry relative="1" as="geometry" />
        </mxCell>
        <mxCell id="i-x4lbsmzgOjpVQ5UTCv-142" value="No" style="edgeLabel;html=1;align=center;verticalAlign=middle;resizable=0;points=[];" connectable="0" vertex="1" parent="i-x4lbsmzgOjpVQ5UTCv-141">
          <mxGeometry x="-0.7227" y="-1" relative="1" as="geometry">
            <mxPoint as="offset" />
          </mxGeometry>
        </mxCell>
        <mxCell id="i-x4lbsmzgOjpVQ5UTCv-68" value="¿Posee&lt;div&gt;Cuenta?&lt;/div&gt;" style="rhombus;whiteSpace=wrap;html=1;fillColor=#ffffc0;strokeColor=#ff0000;fontColor=#000000;rounded=1;arcSize=40;" vertex="1" parent="1ND5I2fzqLQ5LZ6JgbBR-42">
          <mxGeometry x="220" y="490" width="80" height="80" as="geometry" />
        </mxCell>
        <mxCell id="i-x4lbsmzgOjpVQ5UTCv-74" value="Iniciar sesion" style="whiteSpace=wrap;html=1;fillColor=#ffffc0;strokeColor=#ff0000;fontColor=#000000;rounded=1;arcSize=40;" vertex="1" parent="1ND5I2fzqLQ5LZ6JgbBR-42">
          <mxGeometry x="200" y="720" width="120" height="40" as="geometry" />
        </mxCell>
        <mxCell id="i-x4lbsmzgOjpVQ5UTCv-76" value="Registrarse" style="whiteSpace=wrap;html=1;fillColor=#ffffc0;strokeColor=#ff0000;fontColor=#000000;rounded=1;arcSize=40;" vertex="1" parent="1ND5I2fzqLQ5LZ6JgbBR-42">
          <mxGeometry x="40" y="600" width="120" height="40" as="geometry" />
        </mxCell>
        <mxCell id="i-x4lbsmzgOjpVQ5UTCv-84" value="" style="edgeStyle=orthogonalEdgeStyle;rounded=0;orthogonalLoop=1;jettySize=auto;html=1;" edge="1" parent="1ND5I2fzqLQ5LZ6JgbBR-42" source="i-x4lbsmzgOjpVQ5UTCv-81" target="i-x4lbsmzgOjpVQ5UTCv-83">
          <mxGeometry relative="1" as="geometry" />
        </mxCell>
        <mxCell id="i-x4lbsmzgOjpVQ5UTCv-81" value="Seleccionar Barberia Gotti" style="whiteSpace=wrap;html=1;fillColor=#ffffc0;strokeColor=#ff0000;fontColor=#000000;rounded=1;arcSize=40;" vertex="1" parent="1ND5I2fzqLQ5LZ6JgbBR-42">
          <mxGeometry x="200" y="840" width="120" height="40" as="geometry" />
        </mxCell>
        <mxCell id="i-x4lbsmzgOjpVQ5UTCv-86" value="" style="edgeStyle=orthogonalEdgeStyle;rounded=0;orthogonalLoop=1;jettySize=auto;html=1;" edge="1" parent="1ND5I2fzqLQ5LZ6JgbBR-42" source="i-x4lbsmzgOjpVQ5UTCv-83" target="i-x4lbsmzgOjpVQ5UTCv-85">
          <mxGeometry relative="1" as="geometry" />
        </mxCell>
        <mxCell id="i-x4lbsmzgOjpVQ5UTCv-105" style="edgeStyle=orthogonalEdgeStyle;rounded=0;orthogonalLoop=1;jettySize=auto;html=1;exitX=0;exitY=0.5;exitDx=0;exitDy=0;entryX=0.125;entryY=0.5;entryDx=0;entryDy=0;entryPerimeter=0;" edge="1" parent="1ND5I2fzqLQ5LZ6JgbBR-42" source="i-x4lbsmzgOjpVQ5UTCv-83" target="i-x4lbsmzgOjpVQ5UTCv-107">
          <mxGeometry relative="1" as="geometry">
            <mxPoint x="200" y="1660" as="targetPoint" />
            <Array as="points">
              <mxPoint x="100" y="980" />
              <mxPoint x="100" y="1670" />
            </Array>
          </mxGeometry>
        </mxCell>
        <mxCell id="i-x4lbsmzgOjpVQ5UTCv-83" value="¿Modificar servicios?" style="rhombus;whiteSpace=wrap;html=1;fillColor=#ffffc0;strokeColor=#ff0000;fontColor=#000000;rounded=1;arcSize=40;" vertex="1" parent="1ND5I2fzqLQ5LZ6JgbBR-42">
          <mxGeometry x="220" y="940" width="80" height="80" as="geometry" />
        </mxCell>
        <mxCell id="i-x4lbsmzgOjpVQ5UTCv-88" value="" style="edgeStyle=orthogonalEdgeStyle;rounded=0;orthogonalLoop=1;jettySize=auto;html=1;" edge="1" parent="1ND5I2fzqLQ5LZ6JgbBR-42" source="i-x4lbsmzgOjpVQ5UTCv-85" target="i-x4lbsmzgOjpVQ5UTCv-87">
          <mxGeometry relative="1" as="geometry" />
        </mxCell>
        <mxCell id="i-x4lbsmzgOjpVQ5UTCv-85" value="Seleccionar servicio a modificar" style="whiteSpace=wrap;html=1;fillColor=#ffffc0;strokeColor=#ff0000;fontColor=#000000;rounded=1;arcSize=40;" vertex="1" parent="1ND5I2fzqLQ5LZ6JgbBR-42">
          <mxGeometry x="200" y="1080" width="120" height="40" as="geometry" />
        </mxCell>
        <mxCell id="i-x4lbsmzgOjpVQ5UTCv-87" value="Guardar Modificación" style="whiteSpace=wrap;html=1;fillColor=#ffffc0;strokeColor=#ff0000;fontColor=#000000;rounded=1;arcSize=40;" vertex="1" parent="1ND5I2fzqLQ5LZ6JgbBR-42">
          <mxGeometry x="200" y="1200" width="120" height="40" as="geometry" />
        </mxCell>
        <mxCell id="i-x4lbsmzgOjpVQ5UTCv-100" value="" style="edgeStyle=orthogonalEdgeStyle;rounded=0;orthogonalLoop=1;jettySize=auto;html=1;" edge="1" parent="1ND5I2fzqLQ5LZ6JgbBR-42" source="i-x4lbsmzgOjpVQ5UTCv-97" target="i-x4lbsmzgOjpVQ5UTCv-99">
          <mxGeometry relative="1" as="geometry" />
        </mxCell>
        <mxCell id="i-x4lbsmzgOjpVQ5UTCv-97" value="Revisar modificación efectuada" style="whiteSpace=wrap;html=1;fillColor=#ffffc0;strokeColor=#ff0000;fontColor=#000000;rounded=1;arcSize=40;" vertex="1" parent="1ND5I2fzqLQ5LZ6JgbBR-42">
          <mxGeometry x="200" y="1320" width="120" height="40" as="geometry" />
        </mxCell>
        <mxCell id="i-x4lbsmzgOjpVQ5UTCv-101" style="edgeStyle=orthogonalEdgeStyle;rounded=0;orthogonalLoop=1;jettySize=auto;html=1;exitX=1;exitY=0.5;exitDx=0;exitDy=0;entryX=0.899;entryY=0.497;entryDx=0;entryDy=0;entryPerimeter=0;" edge="1" parent="1ND5I2fzqLQ5LZ6JgbBR-42" source="i-x4lbsmzgOjpVQ5UTCv-99" target="i-x4lbsmzgOjpVQ5UTCv-83">
          <mxGeometry relative="1" as="geometry">
            <mxPoint x="380" y="1100" as="targetPoint" />
            <Array as="points">
              <mxPoint x="370" y="1460" />
              <mxPoint x="370" y="980" />
            </Array>
          </mxGeometry>
        </mxCell>
        <mxCell id="i-x4lbsmzgOjpVQ5UTCv-121" value="Si&lt;div&gt;&lt;br&gt;&lt;/div&gt;" style="edgeLabel;html=1;align=center;verticalAlign=middle;resizable=0;points=[];" connectable="0" vertex="1" parent="i-x4lbsmzgOjpVQ5UTCv-101">
          <mxGeometry x="-0.8884" y="-4" relative="1" as="geometry">
            <mxPoint as="offset" />
          </mxGeometry>
        </mxCell>
        <mxCell id="i-x4lbsmzgOjpVQ5UTCv-103" value="" style="edgeStyle=orthogonalEdgeStyle;rounded=0;orthogonalLoop=1;jettySize=auto;html=1;" edge="1" parent="1ND5I2fzqLQ5LZ6JgbBR-42" source="i-x4lbsmzgOjpVQ5UTCv-99" target="i-x4lbsmzgOjpVQ5UTCv-102">
          <mxGeometry relative="1" as="geometry" />
        </mxCell>
        <mxCell id="i-x4lbsmzgOjpVQ5UTCv-120" value="No" style="edgeLabel;html=1;align=center;verticalAlign=middle;resizable=0;points=[];" connectable="0" vertex="1" parent="i-x4lbsmzgOjpVQ5UTCv-103">
          <mxGeometry x="-0.0168" y="4" relative="1" as="geometry">
            <mxPoint as="offset" />
          </mxGeometry>
        </mxCell>
        <mxCell id="i-x4lbsmzgOjpVQ5UTCv-99" value="continuar en el sitio web" style="rhombus;whiteSpace=wrap;html=1;fillColor=#ffffc0;strokeColor=#ff0000;fontColor=#000000;rounded=1;arcSize=40;" vertex="1" parent="1ND5I2fzqLQ5LZ6JgbBR-42">
          <mxGeometry x="220" y="1420" width="80" height="80" as="geometry" />
        </mxCell>
        <mxCell id="i-x4lbsmzgOjpVQ5UTCv-123" value="" style="edgeStyle=orthogonalEdgeStyle;rounded=0;orthogonalLoop=1;jettySize=auto;html=1;" edge="1" parent="1ND5I2fzqLQ5LZ6JgbBR-42" source="i-x4lbsmzgOjpVQ5UTCv-102" target="i-x4lbsmzgOjpVQ5UTCv-122">
          <mxGeometry relative="1" as="geometry" />
        </mxCell>
        <mxCell id="i-x4lbsmzgOjpVQ5UTCv-102" value="Cerrar sesión" style="whiteSpace=wrap;html=1;fillColor=#ffffc0;strokeColor=#ff0000;fontColor=#000000;rounded=1;arcSize=40;" vertex="1" parent="1ND5I2fzqLQ5LZ6JgbBR-42">
          <mxGeometry x="200" y="1530" width="120" height="40" as="geometry" />
        </mxCell>
        <mxCell id="i-x4lbsmzgOjpVQ5UTCv-109" value="" style="edgeStyle=orthogonalEdgeStyle;rounded=0;orthogonalLoop=1;jettySize=auto;html=1;" edge="1" parent="1ND5I2fzqLQ5LZ6JgbBR-42" source="i-x4lbsmzgOjpVQ5UTCv-107" target="i-x4lbsmzgOjpVQ5UTCv-108">
          <mxGeometry relative="1" as="geometry" />
        </mxCell>
        <mxCell id="i-x4lbsmzgOjpVQ5UTCv-138" value="Si" style="edgeLabel;html=1;align=center;verticalAlign=middle;resizable=0;points=[];" connectable="0" vertex="1" parent="i-x4lbsmzgOjpVQ5UTCv-109">
          <mxGeometry x="-0.5373" y="-1" relative="1" as="geometry">
            <mxPoint as="offset" />
          </mxGeometry>
        </mxCell>
        <mxCell id="i-x4lbsmzgOjpVQ5UTCv-134" value="" style="edgeStyle=orthogonalEdgeStyle;rounded=0;orthogonalLoop=1;jettySize=auto;html=1;" edge="1" parent="1ND5I2fzqLQ5LZ6JgbBR-42" source="i-x4lbsmzgOjpVQ5UTCv-107" target="i-x4lbsmzgOjpVQ5UTCv-133">
          <mxGeometry relative="1" as="geometry" />
        </mxCell>
        <mxCell id="i-x4lbsmzgOjpVQ5UTCv-137" value="No" style="edgeLabel;html=1;align=center;verticalAlign=middle;resizable=0;points=[];" connectable="0" vertex="1" parent="i-x4lbsmzgOjpVQ5UTCv-134">
          <mxGeometry x="-0.0627" y="-1" relative="1" as="geometry">
            <mxPoint as="offset" />
          </mxGeometry>
        </mxCell>
        <mxCell id="i-x4lbsmzgOjpVQ5UTCv-107" value="Gestionar productos" style="rhombus;whiteSpace=wrap;html=1;fillColor=#ffffc0;strokeColor=#ff0000;fontColor=#000000;rounded=1;arcSize=40;" vertex="1" parent="1ND5I2fzqLQ5LZ6JgbBR-42">
          <mxGeometry x="220" y="1630" width="80" height="80" as="geometry" />
        </mxCell>
        <mxCell id="i-x4lbsmzgOjpVQ5UTCv-111" value="" style="edgeStyle=orthogonalEdgeStyle;rounded=0;orthogonalLoop=1;jettySize=auto;html=1;" edge="1" parent="1ND5I2fzqLQ5LZ6JgbBR-42" source="i-x4lbsmzgOjpVQ5UTCv-108" target="i-x4lbsmzgOjpVQ5UTCv-110">
          <mxGeometry relative="1" as="geometry" />
        </mxCell>
        <mxCell id="i-x4lbsmzgOjpVQ5UTCv-108" value="Seleccionar producto" style="whiteSpace=wrap;html=1;fillColor=#ffffc0;strokeColor=#ff0000;fontColor=#000000;rounded=1;arcSize=40;" vertex="1" parent="1ND5I2fzqLQ5LZ6JgbBR-42">
          <mxGeometry x="200" y="1800" width="120" height="40" as="geometry" />
        </mxCell>
        <mxCell id="i-x4lbsmzgOjpVQ5UTCv-113" value="" style="edgeStyle=orthogonalEdgeStyle;rounded=0;orthogonalLoop=1;jettySize=auto;html=1;" edge="1" parent="1ND5I2fzqLQ5LZ6JgbBR-42" source="i-x4lbsmzgOjpVQ5UTCv-110" target="i-x4lbsmzgOjpVQ5UTCv-112">
          <mxGeometry relative="1" as="geometry" />
        </mxCell>
        <mxCell id="i-x4lbsmzgOjpVQ5UTCv-110" value="Agregar/ Modificar / Eliminar Producto" style="whiteSpace=wrap;html=1;fillColor=#ffffc0;strokeColor=#ff0000;fontColor=#000000;rounded=1;arcSize=40;" vertex="1" parent="1ND5I2fzqLQ5LZ6JgbBR-42">
          <mxGeometry x="200" y="1920" width="120" height="40" as="geometry" />
        </mxCell>
        <mxCell id="i-x4lbsmzgOjpVQ5UTCv-112" value="Guardar lo Hecho" style="whiteSpace=wrap;html=1;fillColor=#ffffc0;strokeColor=#ff0000;fontColor=#000000;rounded=1;arcSize=40;" vertex="1" parent="1ND5I2fzqLQ5LZ6JgbBR-42">
          <mxGeometry x="200" y="2040" width="120" height="40" as="geometry" />
        </mxCell>
        <mxCell id="i-x4lbsmzgOjpVQ5UTCv-125" value="" style="edgeStyle=orthogonalEdgeStyle;rounded=0;orthogonalLoop=1;jettySize=auto;html=1;" edge="1" parent="1ND5I2fzqLQ5LZ6JgbBR-42" source="i-x4lbsmzgOjpVQ5UTCv-118" target="i-x4lbsmzgOjpVQ5UTCv-124">
          <mxGeometry relative="1" as="geometry" />
        </mxCell>
        <mxCell id="i-x4lbsmzgOjpVQ5UTCv-118" value="Revisar Modificación Efectuada" style="whiteSpace=wrap;html=1;fillColor=#ffffc0;strokeColor=#ff0000;fontColor=#000000;rounded=1;arcSize=40;" vertex="1" parent="1ND5I2fzqLQ5LZ6JgbBR-42">
          <mxGeometry x="200" y="2240" width="120" height="40" as="geometry" />
        </mxCell>
        <mxCell id="i-x4lbsmzgOjpVQ5UTCv-122" value="" style="shape=sumEllipse;perimeter=ellipsePerimeter;html=1;backgroundOutline=1;" vertex="1" parent="1ND5I2fzqLQ5LZ6JgbBR-42">
          <mxGeometry x="245" y="1590" width="30" height="30" as="geometry" />
        </mxCell>
        <mxCell id="i-x4lbsmzgOjpVQ5UTCv-126" style="edgeStyle=orthogonalEdgeStyle;rounded=0;orthogonalLoop=1;jettySize=auto;html=1;exitX=1;exitY=0.5;exitDx=0;exitDy=0;entryX=0.899;entryY=0.484;entryDx=0;entryDy=0;entryPerimeter=0;" edge="1" parent="1ND5I2fzqLQ5LZ6JgbBR-42" source="i-x4lbsmzgOjpVQ5UTCv-124" target="i-x4lbsmzgOjpVQ5UTCv-83">
          <mxGeometry relative="1" as="geometry">
            <mxPoint x="420" y="980" as="targetPoint" />
            <Array as="points">
              <mxPoint x="370" y="2380" />
              <mxPoint x="370" y="980" />
              <mxPoint x="292" y="980" />
            </Array>
          </mxGeometry>
        </mxCell>
        <mxCell id="i-x4lbsmzgOjpVQ5UTCv-127" value="Si" style="edgeLabel;html=1;align=center;verticalAlign=middle;resizable=0;points=[];" connectable="0" vertex="1" parent="i-x4lbsmzgOjpVQ5UTCv-126">
          <mxGeometry x="-0.9629" y="1" relative="1" as="geometry">
            <mxPoint as="offset" />
          </mxGeometry>
        </mxCell>
        <mxCell id="i-x4lbsmzgOjpVQ5UTCv-129" value="" style="edgeStyle=orthogonalEdgeStyle;rounded=0;orthogonalLoop=1;jettySize=auto;html=1;" edge="1" parent="1ND5I2fzqLQ5LZ6JgbBR-42" source="i-x4lbsmzgOjpVQ5UTCv-124" target="i-x4lbsmzgOjpVQ5UTCv-128">
          <mxGeometry relative="1" as="geometry" />
        </mxCell>
        <mxCell id="i-x4lbsmzgOjpVQ5UTCv-130" value="No" style="edgeLabel;html=1;align=center;verticalAlign=middle;resizable=0;points=[];" connectable="0" vertex="1" parent="i-x4lbsmzgOjpVQ5UTCv-129">
          <mxGeometry x="-0.2763" y="1" relative="1" as="geometry">
            <mxPoint as="offset" />
          </mxGeometry>
        </mxCell>
        <mxCell id="i-x4lbsmzgOjpVQ5UTCv-124" value="Continuar en el sitio web" style="rhombus;whiteSpace=wrap;html=1;fillColor=#ffffc0;strokeColor=#ff0000;fontColor=#000000;rounded=1;arcSize=40;" vertex="1" parent="1ND5I2fzqLQ5LZ6JgbBR-42">
          <mxGeometry x="220" y="2340" width="80" height="80" as="geometry" />
        </mxCell>
        <mxCell id="i-x4lbsmzgOjpVQ5UTCv-140" value="" style="edgeStyle=orthogonalEdgeStyle;rounded=0;orthogonalLoop=1;jettySize=auto;html=1;" edge="1" parent="1ND5I2fzqLQ5LZ6JgbBR-42" source="i-x4lbsmzgOjpVQ5UTCv-128" target="i-x4lbsmzgOjpVQ5UTCv-139">
          <mxGeometry relative="1" as="geometry" />
        </mxCell>
        <mxCell id="i-x4lbsmzgOjpVQ5UTCv-128" value="Cerrar Sesión" style="whiteSpace=wrap;html=1;fillColor=#ffffc0;strokeColor=#ff0000;fontColor=#000000;rounded=1;arcSize=40;" vertex="1" parent="1ND5I2fzqLQ5LZ6JgbBR-42">
          <mxGeometry x="200" y="2460" width="120" height="40" as="geometry" />
        </mxCell>
        <mxCell id="i-x4lbsmzgOjpVQ5UTCv-136" value="" style="edgeStyle=orthogonalEdgeStyle;rounded=0;orthogonalLoop=1;jettySize=auto;html=1;" edge="1" parent="1ND5I2fzqLQ5LZ6JgbBR-42" source="i-x4lbsmzgOjpVQ5UTCv-133" target="i-x4lbsmzgOjpVQ5UTCv-135">
          <mxGeometry relative="1" as="geometry" />
        </mxCell>
        <mxCell id="i-x4lbsmzgOjpVQ5UTCv-133" value="Cerrar sesión" style="whiteSpace=wrap;html=1;fillColor=#ffffc0;strokeColor=#ff0000;fontColor=#000000;rounded=1;arcSize=40;" vertex="1" parent="1ND5I2fzqLQ5LZ6JgbBR-42">
          <mxGeometry x="390" y="1650" width="120" height="40" as="geometry" />
        </mxCell>
        <mxCell id="i-x4lbsmzgOjpVQ5UTCv-135" value="" style="shape=sumEllipse;perimeter=ellipsePerimeter;html=1;backgroundOutline=1;" vertex="1" parent="1ND5I2fzqLQ5LZ6JgbBR-42">
          <mxGeometry x="435" y="1724" width="30" height="30" as="geometry" />
        </mxCell>
        <mxCell id="i-x4lbsmzgOjpVQ5UTCv-139" value="" style="ellipse;html=1;shape=endState;fillColor=#000000;strokeColor=#ff0000;" vertex="1" parent="1ND5I2fzqLQ5LZ6JgbBR-42">
          <mxGeometry x="240" y="2520" width="40" height="40" as="geometry" />
        </mxCell>
        <mxCell id="1ND5I2fzqLQ5LZ6JgbBR-44" value="" style="edgeStyle=orthogonalEdgeStyle;rounded=0;orthogonalLoop=1;jettySize=auto;html=1;exitX=1;exitY=0.5;exitDx=0;exitDy=0;" edge="1" parent="1" source="1ND5I2fzqLQ5LZ6JgbBR-17" target="1ND5I2fzqLQ5LZ6JgbBR-43">
          <mxGeometry relative="1" as="geometry">
            <Array as="points">
              <mxPoint x="710" y="390" />
              <mxPoint x="710" y="630" />
            </Array>
          </mxGeometry>
        </mxCell>
        <mxCell id="i-x4lbsmzgOjpVQ5UTCv-12" style="edgeStyle=orthogonalEdgeStyle;rounded=0;orthogonalLoop=1;jettySize=auto;html=1;exitX=1;exitY=0.5;exitDx=0;exitDy=0;entryX=0;entryY=0.5;entryDx=0;entryDy=0;" edge="1" parent="1" source="1ND5I2fzqLQ5LZ6JgbBR-7" target="i-x4lbsmzgOjpVQ5UTCv-4">
          <mxGeometry relative="1" as="geometry" />
        </mxCell>
        <mxCell id="i-x4lbsmzgOjpVQ5UTCv-5" value="" style="edgeStyle=orthogonalEdgeStyle;html=1;verticalAlign=bottom;endArrow=open;endSize=8;strokeColor=#ff0000;rounded=0;entryX=1;entryY=0.5;entryDx=0;entryDy=0;" edge="1" parent="1" source="i-x4lbsmzgOjpVQ5UTCv-4" target="1ND5I2fzqLQ5LZ6JgbBR-11">
          <mxGeometry relative="1" as="geometry">
            <mxPoint x="640" y="270" as="targetPoint" />
            <Array as="points">
              <mxPoint x="640" y="260" />
            </Array>
          </mxGeometry>
        </mxCell>
        <mxCell id="i-x4lbsmzgOjpVQ5UTCv-28" value="" style="edgeStyle=orthogonalEdgeStyle;rounded=0;orthogonalLoop=1;jettySize=auto;html=1;" edge="1" parent="1" source="i-x4lbsmzgOjpVQ5UTCv-25" target="i-x4lbsmzgOjpVQ5UTCv-27">
          <mxGeometry relative="1" as="geometry" />
        </mxCell>
        <mxCell id="i-x4lbsmzgOjpVQ5UTCv-40" value="Debito&lt;div&gt;&lt;br&gt;&lt;/div&gt;" style="edgeLabel;html=1;align=center;verticalAlign=middle;resizable=0;points=[];" connectable="0" vertex="1" parent="i-x4lbsmzgOjpVQ5UTCv-28">
          <mxGeometry x="-0.6074" y="-1" relative="1" as="geometry">
            <mxPoint as="offset" />
          </mxGeometry>
        </mxCell>
        <mxCell id="i-x4lbsmzgOjpVQ5UTCv-29" style="edgeStyle=orthogonalEdgeStyle;rounded=0;orthogonalLoop=1;jettySize=auto;html=1;exitX=1;exitY=0.5;exitDx=0;exitDy=0;entryX=0.5;entryY=1;entryDx=0;entryDy=0;" edge="1" parent="1" source="i-x4lbsmzgOjpVQ5UTCv-41" target="i-x4lbsmzgOjpVQ5UTCv-27">
          <mxGeometry relative="1" as="geometry">
            <Array as="points">
              <mxPoint x="640" y="1860" />
            </Array>
          </mxGeometry>
        </mxCell>
        <mxCell id="i-x4lbsmzgOjpVQ5UTCv-36" value="" style="edgeStyle=orthogonalEdgeStyle;rounded=0;orthogonalLoop=1;jettySize=auto;html=1;" edge="1" parent="1" source="i-x4lbsmzgOjpVQ5UTCv-32" target="i-x4lbsmzgOjpVQ5UTCv-35">
          <mxGeometry relative="1" as="geometry" />
        </mxCell>
        <mxCell id="i-x4lbsmzgOjpVQ5UTCv-43" value="Credito" style="edgeLabel;html=1;align=center;verticalAlign=middle;resizable=0;points=[];" connectable="0" vertex="1" parent="1">
          <mxGeometry x="277.5" y="1863" as="geometry">
            <mxPoint x="-87" y="-55" as="offset" />
          </mxGeometry>
        </mxCell>
        <mxCell id="i-x4lbsmzgOjpVQ5UTCv-60" style="edgeStyle=orthogonalEdgeStyle;rounded=0;orthogonalLoop=1;jettySize=auto;html=1;exitX=0;exitY=0.5;exitDx=0;exitDy=0;entryX=1;entryY=0.5;entryDx=0;entryDy=0;" edge="1" parent="1" source="i-x4lbsmzgOjpVQ5UTCv-58" target="i-x4lbsmzgOjpVQ5UTCv-4">
          <mxGeometry relative="1" as="geometry" />
        </mxCell>
        <mxCell id="i-x4lbsmzgOjpVQ5UTCv-63" value="" style="edgeStyle=orthogonalEdgeStyle;rounded=0;orthogonalLoop=1;jettySize=auto;html=1;" edge="1" parent="1" source="i-x4lbsmzgOjpVQ5UTCv-4" target="i-x4lbsmzgOjpVQ5UTCv-62">
          <mxGeometry relative="1" as="geometry">
            <Array as="points">
              <mxPoint x="640" y="260" />
            </Array>
          </mxGeometry>
        </mxCell>
        <mxCell id="i-x4lbsmzgOjpVQ5UTCv-79" style="edgeStyle=orthogonalEdgeStyle;rounded=0;orthogonalLoop=1;jettySize=auto;html=1;exitX=0.5;exitY=1;exitDx=0;exitDy=0;entryX=0.5;entryY=0;entryDx=0;entryDy=0;" edge="1" parent="1" source="i-x4lbsmzgOjpVQ5UTCv-76" target="i-x4lbsmzgOjpVQ5UTCv-71">
          <mxGeometry relative="1" as="geometry">
            <Array as="points">
              <mxPoint x="980" y="680" />
              <mxPoint x="640" y="680" />
            </Array>
          </mxGeometry>
        </mxCell>
        <mxCell id="i-x4lbsmzgOjpVQ5UTCv-80" style="edgeStyle=orthogonalEdgeStyle;rounded=0;orthogonalLoop=1;jettySize=auto;html=1;exitX=0;exitY=0.5;exitDx=0;exitDy=0;entryX=1;entryY=0.5;entryDx=0;entryDy=0;" edge="1" parent="1" source="i-x4lbsmzgOjpVQ5UTCv-74" target="i-x4lbsmzgOjpVQ5UTCv-71">
          <mxGeometry relative="1" as="geometry" />
        </mxCell>
        <mxCell id="i-x4lbsmzgOjpVQ5UTCv-82" value="" style="edgeStyle=orthogonalEdgeStyle;rounded=0;orthogonalLoop=1;jettySize=auto;html=1;" edge="1" parent="1" source="i-x4lbsmzgOjpVQ5UTCv-71" target="i-x4lbsmzgOjpVQ5UTCv-81">
          <mxGeometry relative="1" as="geometry">
            <Array as="points">
              <mxPoint x="640" y="860" />
            </Array>
          </mxGeometry>
        </mxCell>
        <mxCell id="i-x4lbsmzgOjpVQ5UTCv-92" value="" style="edgeStyle=orthogonalEdgeStyle;rounded=0;orthogonalLoop=1;jettySize=auto;html=1;" edge="1" parent="1" source="i-x4lbsmzgOjpVQ5UTCv-87" target="i-x4lbsmzgOjpVQ5UTCv-91">
          <mxGeometry relative="1" as="geometry" />
        </mxCell>
        <mxCell id="i-x4lbsmzgOjpVQ5UTCv-98" value="" style="edgeStyle=orthogonalEdgeStyle;rounded=0;orthogonalLoop=1;jettySize=auto;html=1;" edge="1" parent="1" source="i-x4lbsmzgOjpVQ5UTCv-93" target="i-x4lbsmzgOjpVQ5UTCv-97">
          <mxGeometry relative="1" as="geometry" />
        </mxCell>
        <mxCell id="i-x4lbsmzgOjpVQ5UTCv-115" value="" style="edgeStyle=orthogonalEdgeStyle;rounded=0;orthogonalLoop=1;jettySize=auto;html=1;exitX=0.5;exitY=1;exitDx=0;exitDy=0;" edge="1" parent="1" source="i-x4lbsmzgOjpVQ5UTCv-112" target="i-x4lbsmzgOjpVQ5UTCv-114">
          <mxGeometry relative="1" as="geometry">
            <Array as="points">
              <mxPoint x="1140" y="2140" />
            </Array>
          </mxGeometry>
        </mxCell>
        <mxCell id="i-x4lbsmzgOjpVQ5UTCv-119" value="" style="edgeStyle=orthogonalEdgeStyle;rounded=0;orthogonalLoop=1;jettySize=auto;html=1;" edge="1" parent="1" source="i-x4lbsmzgOjpVQ5UTCv-116" target="i-x4lbsmzgOjpVQ5UTCv-118">
          <mxGeometry relative="1" as="geometry" />
        </mxCell>
      </root>
    </mxGraphModel>
  </diagram>
</mxfile>
